<svg width="30" height="32" viewBox="0 0 30 32" fill="none" xmlns="http://www.w3.org/2000/svg">
<g clip-path="url(#clip0_609_109)">
<path d="M15.5001 6.73767C8.96417 6.73767 3.64671 12.1837 3.64671 18.8778C3.64671 25.5719 8.96417 31.0179 15.5001 31.0179C22.0361 31.0179 27.3535 25.5719 27.3535 18.8778C27.3535 12.1838 22.0361 6.73767 15.5001 6.73767ZM15.5001 29.2399C9.9214 29.2399 5.38272 24.5915 5.38272 18.8778C5.38272 13.1642 9.9214 8.51573 15.5001 8.51573C21.0789 8.51573 25.6175 13.1642 25.6175 18.8778C25.6175 24.5915 21.0789 29.2399 15.5001 29.2399Z" fill="white"/>
<path d="M20.6767 21.1354C20.3128 20.8158 19.7648 20.8587 19.4527 21.2314C18.4616 22.4148 17.0209 23.0936 15.5001 23.0936C13.9795 23.0936 12.5388 22.4149 11.5476 21.2314C11.2355 20.8588 10.6876 20.8159 10.3237 21.1355C9.95984 21.4552 9.91788 22.0164 10.23 22.389C11.5514 23.9667 13.4723 24.8716 15.5002 24.8716C17.5281 24.8716 19.4491 23.9667 20.7704 22.3889C21.0825 22.0163 21.0406 21.4551 20.6767 21.1354Z" fill="white"/>
<path d="M10.6814 17.4796C11.1608 17.4796 11.5494 17.0815 11.5494 16.5906C11.5494 16.3056 11.7758 16.0737 12.0541 16.0737C12.3324 16.0737 12.5588 16.3056 12.5588 16.5906C12.5588 17.0815 12.9475 17.4796 13.4268 17.4796C13.9062 17.4796 14.2948 17.0815 14.2948 16.5906C14.2948 15.3252 13.2896 14.2957 12.0541 14.2957C10.8186 14.2957 9.81339 15.3252 9.81339 16.5906C9.81339 17.0816 10.202 17.4796 10.6814 17.4796Z" fill="white"/>
<path d="M18.9462 14.2957C17.7107 14.2957 16.7055 15.3252 16.7055 16.5906C16.7055 17.0815 17.0941 17.4796 17.5735 17.4796C18.0529 17.4796 18.4415 17.0815 18.4415 16.5906C18.4415 16.3056 18.6679 16.0737 18.9462 16.0737C19.2245 16.0737 19.4509 16.3056 19.4509 16.5906C19.4509 17.0815 19.8396 17.4796 20.3189 17.4796C20.7983 17.4796 21.1869 17.0815 21.1869 16.5906C21.1869 15.3251 20.1817 14.2957 18.9462 14.2957Z" fill="white"/>
<path d="M22.6514 5.66728H23.9177C24.3971 5.66728 24.7857 5.26924 24.7857 4.77828C24.7857 4.28732 24.3971 3.88928 23.9177 3.88928H22.6514C22.172 3.88928 21.7834 4.28732 21.7834 4.77828C21.7834 5.26924 22.172 5.66728 22.6514 5.66728Z" fill="white"/>
<path d="M25.8219 8.88315C26.3013 8.88315 26.6899 8.48512 26.6899 7.99415V6.69722C26.6899 6.20626 26.3013 5.80823 25.8219 5.80823C25.3426 5.80823 24.9539 6.20626 24.9539 6.69722V7.99415C24.9539 8.48518 25.3426 8.88315 25.8219 8.88315Z" fill="white"/>
<path d="M28.9925 3.88928H27.7262C27.2468 3.88928 26.8582 4.28732 26.8582 4.77828C26.8582 5.26924 27.2468 5.66728 27.7262 5.66728H28.9925C29.4719 5.66728 29.8605 5.26924 29.8605 4.77828C29.8605 4.28732 29.4719 3.88928 28.9925 3.88928Z" fill="white"/>
<path d="M25.8219 3.74839C26.3013 3.74839 26.6899 3.35035 26.6899 2.85939V1.56246C26.6899 1.0715 26.3013 0.673462 25.8219 0.673462C25.3426 0.673462 24.9539 1.0715 24.9539 1.56246V2.85939C24.9539 3.35035 25.3426 3.74839 25.8219 3.74839Z" fill="white"/>
<path d="M2.1115 5.07471H1.10056C0.621194 5.07471 0.232559 5.47274 0.232559 5.96371C0.232559 6.45467 0.621194 6.8527 1.10056 6.8527H2.1115C2.59087 6.8527 2.97951 6.45467 2.97951 5.96371C2.97951 5.47274 2.59087 5.07471 2.1115 5.07471Z" fill="white"/>
<path d="M4.78913 8.82734V7.79195C4.78913 7.30099 4.40049 6.90295 3.92112 6.90295C3.44175 6.90295 3.05312 7.30099 3.05312 7.79195V8.82734C3.05312 9.3183 3.44175 9.71634 3.92112 9.71634C4.40049 9.71634 4.78913 9.3183 4.78913 8.82734Z" fill="white"/>
<path d="M5.73068 6.8527H6.74161C7.22099 6.8527 7.60962 6.45467 7.60962 5.96371C7.60962 5.47274 7.22099 5.07471 6.74161 5.07471H5.73068C5.25131 5.07471 4.86267 5.47274 4.86267 5.96371C4.86267 6.45467 5.25131 6.8527 5.73068 6.8527Z" fill="white"/>
<path d="M3.92112 5.02432C4.40049 5.02432 4.78913 4.62629 4.78913 4.13532V3.09994C4.78913 2.60897 4.40049 2.21094 3.92112 2.21094C3.44175 2.21094 3.05312 2.60897 3.05312 3.09994V4.13532C3.05312 4.62629 3.44175 5.02432 3.92112 5.02432Z" fill="white"/>
</g>
<defs>
<clipPath id="clip0_609_109">
<rect width="29.6279" height="30.3445" fill="white" transform="translate(0.232559 0.673462)"/>
</clipPath>
</defs>
</svg>
