<svg width="83" height="83" viewBox="0 0 83 83" fill="none" xmlns="http://www.w3.org/2000/svg">
<rect width="83" height="83" rx="20" fill="#EFEAFF"/>
<path d="M25.4844 40.2188H39.5781C39.748 40.2188 39.911 40.1513 40.0311 40.0311C40.1513 39.911 40.2188 39.748 40.2188 39.5781V29.3281C40.2188 29.1582 40.1513 28.9953 40.0311 28.8751C39.911 28.755 39.748 28.6875 39.5781 28.6875H25.4844C25.3145 28.6875 25.1515 28.755 25.0314 28.8751C24.9112 28.9953 24.8438 29.1582 24.8438 29.3281V39.5781C24.8438 39.748 24.9112 39.911 25.0314 40.0311C25.1515 40.1513 25.3145 40.2188 25.4844 40.2188ZM26.125 29.9688H38.9375V38.9375H26.125V29.9688Z" fill="#4628A4"/>
<path d="M25.4844 52.3906H39.5781C39.748 52.3906 39.911 52.3231 40.0311 52.203C40.1513 52.0829 40.2188 51.9199 40.2188 51.75V42.1406C40.2188 41.9707 40.1513 41.8078 40.0311 41.6876C39.911 41.5675 39.748 41.5 39.5781 41.5H25.4844C25.3145 41.5 25.1515 41.5675 25.0314 41.6876C24.9112 41.8078 24.8438 41.9707 24.8438 42.1406V51.75C24.8438 51.9199 24.9112 52.0829 25.0314 52.203C25.1515 52.3231 25.3145 52.3906 25.4844 52.3906ZM26.125 42.7812H38.9375V51.1094H26.125V42.7812Z" fill="#4628A4"/>
<path d="M51.1094 52.3906H52.3906V53.6719H51.1094V52.3906Z" fill="#4628A4"/>
<path d="M56.2344 52.3906H57.5156V53.6719H56.2344V52.3906Z" fill="#4628A4"/>
<path d="M54.3125 56.875C53.9727 56.875 53.6468 56.74 53.4065 56.4997C53.1662 56.2595 53.0312 55.9336 53.0312 55.5938H51.75C51.75 56.2734 52.02 56.9251 52.5005 57.4057C52.9811 57.8863 53.6329 58.1562 54.3125 58.1562C54.9921 58.1562 55.6439 57.8863 56.1245 57.4057C56.605 56.9251 56.875 56.2734 56.875 55.5938H55.5938C55.5938 55.9336 55.4588 56.2595 55.2185 56.4997C54.9782 56.74 54.6523 56.875 54.3125 56.875Z" fill="#4628A4"/>
<path d="M35.4141 33.8971L30.9297 31.3346C30.8322 31.2783 30.7216 31.2487 30.6091 31.2488C30.4965 31.2488 30.3859 31.2785 30.2885 31.3349C30.1911 31.3913 30.1102 31.4724 30.0541 31.5699C29.998 31.6675 29.9685 31.7781 29.9688 31.8907V37.0157C29.9685 37.1282 29.998 37.2389 30.0541 37.3364C30.1102 37.434 30.1911 37.515 30.2885 37.5714C30.3859 37.6278 30.4965 37.6575 30.6091 37.6576C30.7216 37.6576 30.8322 37.628 30.9297 37.5717L35.4141 35.0092C35.512 34.9532 35.5935 34.8722 35.6501 34.7746C35.7067 34.6769 35.7366 34.5661 35.7366 34.4532C35.7366 34.3403 35.7067 34.2294 35.6501 34.1318C35.5935 34.0341 35.512 33.9532 35.4141 33.8971V33.8971ZM31.25 35.9112V32.9951L33.8023 34.4532L31.25 35.9112Z" fill="#4628A4"/>
<path d="M54.9531 40.8594C55.075 40.8594 55.1943 40.8247 55.2971 40.7594C55.3999 40.694 55.482 40.6007 55.5336 40.4903C55.5853 40.3799 55.6044 40.2571 55.5887 40.1363C55.573 40.0155 55.5232 39.9016 55.4451 39.8081L52.242 35.9644C52.185 35.8959 52.1144 35.8402 52.0347 35.8006C51.9549 35.761 51.8678 35.7384 51.7788 35.7344C51.6898 35.729 51.6006 35.7429 51.5175 35.7752C51.4343 35.8074 51.3591 35.8573 51.2971 35.9214L50.3573 36.8619L49.0331 35.318C48.9713 35.2507 48.8961 35.197 48.8124 35.1602C48.7287 35.1235 48.6383 35.1045 48.5469 35.1045C48.4555 35.1045 48.3651 35.1235 48.2814 35.1602C48.1977 35.197 48.1225 35.2507 48.0606 35.318L44.2169 39.8023C44.1373 39.8954 44.0861 40.0092 44.0692 40.1305C44.0524 40.2517 44.0706 40.3753 44.1217 40.4865C44.1729 40.5977 44.2548 40.6919 44.3579 40.758C44.4609 40.8241 44.5807 40.8593 44.7031 40.8594H54.9531ZM46.0959 39.5781L48.5469 36.7184L50.9979 39.5781H46.0959ZM51.7071 37.3238L53.5854 39.5781H52.6853L51.1933 37.8375L51.7071 37.3238Z" fill="#4628A4"/>
<path d="M60.0781 22.2812H22.9219C22.752 22.2812 22.589 22.3487 22.4689 22.4689C22.3487 22.589 22.2812 22.752 22.2812 22.9219V54.3125C22.2812 54.4824 22.3487 54.6453 22.4689 54.7655C22.589 54.8856 22.752 54.9531 22.9219 54.9531H47.9389C48.1046 56.5873 48.8916 58.0954 50.1375 59.1659C51.3833 60.2364 52.9927 60.7874 54.6332 60.7052C56.2737 60.623 57.82 59.9137 58.9525 58.724C60.085 57.5343 60.7173 55.9551 60.7188 54.3125V22.9219C60.7188 22.752 60.6513 22.589 60.5311 22.4689C60.411 22.3487 60.248 22.2812 60.0781 22.2812V22.2812ZM54.3125 59.4375C53.2989 59.4375 52.308 59.1369 51.4652 58.5738C50.6224 58.0106 49.9655 57.2102 49.5776 56.2737C49.1897 55.3373 49.0882 54.3068 49.286 53.3127C49.4837 52.3185 49.9718 51.4053 50.6886 50.6886C51.4053 49.9718 52.3185 49.4837 53.3127 49.286C54.3068 49.0882 55.3373 49.1897 56.2738 49.5776C57.2102 49.9655 58.0106 50.6224 58.5738 51.4652C59.1369 52.308 59.4375 53.2989 59.4375 54.3125C59.436 55.6713 58.8955 56.9739 57.9347 57.9347C56.9739 58.8955 55.6713 59.436 54.3125 59.4375ZM48.773 51.1094H42.7812V29.9687H56.875V48.445C55.4336 47.812 53.8092 47.7339 52.3138 48.2257C50.8183 48.7175 49.5574 49.7445 48.773 51.1094V51.1094ZM59.4375 50.4854C59.073 49.9987 58.6417 49.5658 58.1562 49.1997V29.3281C58.1562 29.1582 58.0888 28.9953 57.9686 28.8751C57.8485 28.755 57.6855 28.6875 57.5156 28.6875H42.1406C41.9707 28.6875 41.8078 28.755 41.6876 28.8751C41.5675 28.9953 41.5 29.1582 41.5 29.3281V51.75C41.5 51.9199 41.5675 52.0828 41.6876 52.203C41.8078 52.3231 41.9707 52.3906 42.1406 52.3906H48.2016C48.07 52.8075 47.982 53.2369 47.9389 53.6719H23.5625V27.4062H59.4375V50.4854ZM59.4375 26.125H23.5625V23.5625H59.4375V26.125Z" fill="#4628A4"/>
<path d="M27.4062 44.0625H37.6562V45.3438H27.4062V44.0625Z" fill="#4628A4"/>
<path d="M27.4062 46.625H37.6562V47.9062H27.4062V46.625Z" fill="#4628A4"/>
</svg>
